<svg xmlns="http://www.w3.org/2000/svg" version="1.1" xmlns:xlink="http://www.w3.org/1999/xlink" xmlns:svgjs="http://svgjs.dev/svgjs" width="1440" height="560" preserveAspectRatio="none" viewBox="0 0 1440 560"><g mask="url(&quot;#SvgjsMask1339&quot;)" fill="none"><rect width="61.6" height="61.6" clip-path="url(&quot;#SvgjsClipPath1340&quot;)" x="1119.83" y="100.57" fill="url(&quot;#SvgjsPattern1341&quot;)" transform="rotate(184.05, 1150.63, 131.37)"></rect><rect width="364.56" height="364.56" clip-path="url(&quot;#SvgjsClipPath1342&quot;)" x="253.2" y="326.27" fill="url(&quot;#SvgjsPattern1343&quot;)" transform="rotate(141.76, 435.48, 508.55)"></rect><rect width="300" height="300" clip-path="url(&quot;#SvgjsClipPath1344&quot;)" x="137.94" y="104.68" fill="url(&quot;#SvgjsPattern1345&quot;)" transform="rotate(30.27, 287.94, 254.68)"></rect><rect width="60" height="60" clip-path="url(&quot;#SvgjsClipPath1346&quot;)" x="442.5" y="95.73" fill="url(&quot;#SvgjsPattern1347&quot;)" transform="rotate(280.77, 472.5, 125.73)"></rect><circle r="69.61040446589554" cx="929.28" cy="509.65" stroke="rgba(137, 165, 146, 1)" stroke-width="1.53" stroke-dasharray="3, 2"></circle><path d="M1093.32 175.37 L1012.7199999999999 240.81L1096.290862919151 251.36086291915103z" stroke="rgba(137, 165, 146, 1)" stroke-width="1.89" stroke-dasharray="3, 3"></path><path d="M787.84 190.14L800.3 187.17 805.93 198.67 818.39 195.7 824.02 207.2 836.48 204.22 842.11 215.73M784.43 197.38L796.89 194.4 802.52 205.91 814.98 202.93 820.61 214.43 833.07 211.46 838.7 222.96" stroke="rgba(137, 165, 146, 1)" stroke-width="1.65" stroke-dasharray="2, 2"></path><path d="M1306.53 305.59L1318.56 309.98 1316.93 322.68 1328.96 327.07 1327.32 339.77 1339.35 344.15 1337.71 356.85M1299.7 309.75L1311.73 314.14 1310.09 326.84 1322.12 331.22 1320.48 343.92 1332.52 348.31 1330.88 361.01" stroke="rgba(137, 165, 146, 1)" stroke-width="1.3"></path><circle r="78.63958670196963" cx="643.45" cy="520.56" stroke="rgba(128, 198, 132, 1)" stroke-width="2.22" stroke-dasharray="3, 3"></circle><rect width="259.68" height="259.68" clip-path="url(&quot;#SvgjsClipPath1348&quot;)" x="1211.9" y="-18.05" fill="url(&quot;#SvgjsPattern1349&quot;)" transform="rotate(210.68, 1341.74, 111.79)"></rect><circle r="46.666666666666664" cx="727.47" cy="124.64" stroke="rgba(137, 165, 146, 1)" stroke-width="2.88" stroke-dasharray="3, 3"></circle><path d="M690.8 339.70000000000005 L608.2 264.87L583.8839867791551 367.9010132208449z" stroke="rgba(137, 165, 146, 1)" stroke-width="2.73" stroke-dasharray="3, 3"></path></g><defs><mask id="SvgjsMask1339"><rect width="1440" height="560" fill="#ffffff"></rect></mask><pattern x="0" y="0" width="61.6" height="6.16" patternUnits="userSpaceOnUse" id="SvgjsPattern1341"><rect width="61.6" height="3.08" x="0" y="0" fill="rgba(128, 198, 132, 1)"></rect><rect width="61.6" height="3.08" x="0" y="3.08" fill="rgba(0, 0, 0, 0)"></rect></pattern><clipPath id="SvgjsClipPath1340"><circle r="15.4" cx="1150.63" cy="131.37"></circle></clipPath><pattern x="0" y="0" width="8.68" height="8.68" patternUnits="userSpaceOnUse" id="SvgjsPattern1343"><path d="M0 8.68L4.34 0L8.68 8.68" stroke="rgba(128, 198, 132, 1)" fill="none"></path></pattern><clipPath id="SvgjsClipPath1342"><circle r="91.14" cx="435.48" cy="508.55"></circle></clipPath><pattern x="0" y="0" width="6" height="6" patternUnits="userSpaceOnUse" id="SvgjsPattern1345"><path d="M3 1L3 5M1 3L5 3" stroke="rgba(189, 177, 109, 1)" fill="none" stroke-width="1"></path></pattern><clipPath id="SvgjsClipPath1344"><circle r="75" cx="287.94" cy="254.68"></circle></clipPath><pattern x="0" y="0" width="6" height="6" patternUnits="userSpaceOnUse" id="SvgjsPattern1347"><path d="M3 1L3 5M1 3L5 3" stroke="rgba(137, 165, 146, 1)" fill="none" stroke-width="1.16"></path></pattern><clipPath id="SvgjsClipPath1346"><circle r="15" cx="472.5" cy="125.73"></circle></clipPath><pattern x="0" y="0" width="10.82" height="10.82" patternUnits="userSpaceOnUse" id="SvgjsPattern1349"><path d="M5.41 1L5.41 9.82M1 5.41L9.82 5.41" stroke="rgba(189, 177, 109, 1)" fill="none" stroke-width="2.67"></path></pattern><clipPath id="SvgjsClipPath1348"><circle r="64.92" cx="1341.74" cy="111.79"></circle></clipPath></defs></svg>